<svg xmlns="http://www.w3.org/2000/svg" viewBox="0 0 30 30">
	<g data-name="Layer 1">
		<path d="M12.842 3.35l-12 20.8a2.523 2.523 0 0 0 .912 3.439 2.6 2.6 0 0 0 1.263.327H27a2.511 2.511 0 0 0 2.5-2.526 2.352 2.352 0 0 0-.327-1.24l-12-20.8a2.474 2.474 0 0 0-4.329 0z" fill="#fff"/>
		<path d="M12.842 3.35l-12 20.8a2.523 2.523 0 0 0 .912 3.439 2.6 2.6 0 0 0 1.263.327H27a2.511 2.511 0 0 0 2.5-2.526 2.352 2.352 0 0 0-.327-1.24l-12-20.8a2.474 2.474 0 0 0-4.329 0z" fill="none" stroke="#231f20" stroke-miterlimit="22.926" stroke-width=".5"/>
		<path d="M12.383 23.766l-1.161-1.161-.349.219-.154.181-.142.155-.168.18-.181.22-.09.09-.284.116-.054-.761v-.155l.052-.929V20.85a6.66 6.66 0 0 1 .89-4.141l.258-.426a7.375 7.375 0 0 1 1.587-1.406 10.372 10.372 0 0 1 1.29-.606l.31-.078.129-.051.184-.042.245-.052.18-.038.3-.026.761-.064H17.8l.426.4.09.09.245.154.555.646-.851.941c-.168.219-.349.426-.529.426h-1.844l-.465.039-.206.052-.221.041-.258.09-1.071.645-.258.246-.478.619a6.918 6.918 0 0 0-.425 1.625v3.871l-.129-.039" fill-rule="evenodd"/>
		<path d="M13.551 3.764L1.544 24.562a1.688 1.688 0 0 0 .634 2.312A1.417 1.417 0 0 0 3 27.09h24a1.677 1.677 0 0 0 1.678-1.685 1.628 1.628 0 0 0-.208-.821L16.451 3.764a1.656 1.656 0 0 0-2.274-.612 1.525 1.525 0 0 0-.6.612h-.022m1.465 2.311L4.281 24.674h21.455z" fill="#ed2129" fill-rule="evenodd"/>
	</g>
</svg>